<svg viewBox="0 0 396 94.6308" width="5000px" height="1194.8333123717646px" xmlns="http://www.w3.org/2000/svg" xmlns:xlink="http://www.w3.org/1999/xlink" preserveAspectRatio="none"><defs></defs><style>.a6izo4zJpcolor6pk557rV5x {fill:#000000;fill-opacity:1;}.aD6z1nYkhcolor6pk557rV5x {fill:#000000;fill-opacity:1;}.shapeStroke-str6pk557rV5x {stroke:#3F3F3F;stroke-opacity:1;}.text6pk557rV5x {fill:#000000;fill-opacity:1;}</style><g opacity="1" transform="rotate(0 266.7556 83.2099)">
        <svg width="32.6313" height="2.1754" x="266.7556" y="83.2099" version="1.1" preserveAspectRatio="none" viewBox="0 0 32.6313 2.1754">
          <rect x="0" y="0" width="32.6313" height="2.1754" class="text6pk557rV5x shapeStroke-str6pk557rV5x" style="stroke-width:0;" rx="0%" ry="0%"></rect>
        </svg>
      </g><g opacity="1" transform="rotate(0 150.9986 73.96430000000004)">
        <svg width="94.0028" height="20.6665" x="150.9986" y="73.96430000000004" version="1.1" preserveAspectRatio="none" viewBox="0.16 -30.28 174.12 38.28">
          <g transform="matrix(1 0 0 1 0 0)" class="a6izo4zJpcolor6pk557rV5x"><path transform="" stroke="none" d="M9.76 0L9.76-24.52L0.16-24.52L0.16-28L23.32-28L23.32-24.52L13.72-24.52L13.72 0L9.76 0Z"></path>
    <path transform="" stroke="none" d="M31.88-17.64Q32.88-19.48 34.84-20.44Q36.80-21.40 39.60-21.40L39.60-21.40L39.60-17.68Q39.28-17.72 38.72-17.72L38.72-17.72Q35.60-17.72 33.82-15.86Q32.04-14 32.04-10.56L32.04-10.56L32.04 0L28.20 0L28.20-21.20L31.88-21.20L31.88-17.64Z"></path>
    <path transform="" stroke="none" d="M45.92 0L45.92-21.20L49.76-21.20L49.76 0L45.92 0ZM47.84-25.28Q46.72-25.28 45.98-26Q45.24-26.72 45.24-27.76L45.24-27.76Q45.24-28.80 45.98-29.54Q46.72-30.28 47.84-30.28L47.84-30.28Q48.96-30.28 49.70-29.58Q50.44-28.88 50.44-27.84L50.44-27.84Q50.44-26.76 49.70-26.02Q48.96-25.28 47.84-25.28L47.84-25.28Z"></path>
    <path transform="" stroke="none" d="M66.40-21.40Q70.80-21.40 73.14-19.24Q75.48-17.08 75.48-12.80L75.48-12.80L75.48 0L71.84 0L71.84-2.80Q70.88-1.32 69.10-0.54Q67.32 0.24 64.88 0.24L64.88 0.24Q61.32 0.24 59.18-1.48Q57.04-3.20 57.04-6L57.04-6Q57.04-8.80 59.08-10.50Q61.12-12.20 65.56-12.20L65.56-12.20L71.64-12.20L71.64-12.96Q71.64-15.44 70.20-16.76Q68.76-18.08 65.96-18.08L65.96-18.08Q64.08-18.08 62.28-17.46Q60.48-16.84 59.24-15.80L59.24-15.80L57.64-18.68Q59.28-20 61.56-20.70Q63.84-21.40 66.40-21.40L66.40-21.40ZM65.52-2.72Q67.72-2.72 69.32-3.70Q70.92-4.68 71.64-6.48L71.64-6.48L71.64-9.44L65.72-9.44Q60.84-9.44 60.84-6.16L60.84-6.16Q60.84-4.56 62.08-3.64Q63.32-2.72 65.52-2.72L65.52-2.72Z"></path>
    <path transform="" stroke="none" d="M95.52-21.40Q99.56-21.40 101.94-19.06Q104.32-16.72 104.32-12.20L104.32-12.20L104.32 0L100.48 0L100.48-11.76Q100.48-14.84 99-16.40Q97.52-17.96 94.76-17.96L94.76-17.96Q91.64-17.96 89.84-16.14Q88.04-14.32 88.04-10.92L88.04-10.92L88.04 0L84.20 0L84.20-21.20L87.88-21.20L87.88-18Q89.04-19.64 91.02-20.52Q93-21.40 95.52-21.40L95.52-21.40Z"></path>
    <path transform="" stroke="none" d="M129.80-21.20L133.44-21.20L133.44-2.88Q133.44 2.68 130.68 5.34Q127.92 8 122.44 8L122.44 8Q119.44 8 116.72 7.18Q114.00 6.36 112.32 4.84L112.32 4.84L114.16 1.88Q115.64 3.16 117.82 3.90Q120.00 4.64 122.32 4.64L122.32 4.64Q126.04 4.64 127.82 2.88Q129.60 1.12 129.60-2.48L129.60-2.48L129.60-4.16Q128.24-2.52 126.26-1.70Q124.28-0.88 121.96-0.88L121.96-0.88Q118.92-0.88 116.46-2.18Q114.00-3.48 112.60-5.82Q111.20-8.16 111.20-11.16L111.20-11.16Q111.20-14.16 112.60-16.50Q114.00-18.84 116.46-20.12Q118.92-21.40 121.96-21.40L121.96-21.40Q124.36-21.40 126.42-20.52Q128.48-19.64 129.80-17.92L129.80-17.92L129.80-21.20ZM122.40-4.24Q124.48-4.24 126.14-5.12Q127.80-6 128.74-7.58Q129.68-9.16 129.68-11.16L129.68-11.16Q129.68-14.24 127.64-16.14Q125.60-18.04 122.40-18.04L122.40-18.04Q119.16-18.04 117.12-16.14Q115.08-14.24 115.08-11.16L115.08-11.16Q115.08-9.16 116.02-7.58Q116.96-6 118.62-5.12Q120.28-4.24 122.40-4.24L122.40-4.24Z"></path>
    <path transform="" stroke="none" d="M142.36 0L142.36-29.68L146.20-29.68L146.20 0L142.36 0Z"></path>
    <path transform="" stroke="none" d="M174.28-10.48Q174.28-10.04 174.20-9.32L174.20-9.32L157-9.32Q157.36-6.52 159.46-4.82Q161.56-3.12 164.68-3.12L164.68-3.12Q168.48-3.12 170.80-5.68L170.80-5.68L172.92-3.20Q171.48-1.52 169.34-0.64Q167.20 0.24 164.56 0.24L164.56 0.24Q161.20 0.24 158.60-1.14Q156-2.52 154.58-5Q153.16-7.48 153.16-10.60L153.16-10.60Q153.16-13.68 154.54-16.16Q155.92-18.64 158.34-20.02Q160.76-21.40 163.80-21.40L163.80-21.40Q166.84-21.40 169.22-20.02Q171.60-18.64 172.94-16.16Q174.28-13.68 174.28-10.48L174.28-10.48ZM163.80-18.16Q161.04-18.16 159.18-16.48Q157.32-14.80 157-12.08L157-12.08L170.60-12.08Q170.28-14.76 168.42-16.46Q166.56-18.16 163.80-18.16L163.80-18.16Z"></path>
    </g>
        </svg>
      </g><g opacity="1" transform="rotate(0 0 0)">
        <svg width="396" height="54.3855" x="0" y="0" version="1.1" preserveAspectRatio="none" viewBox="1.6 -25.12 186.4 25.6">
          <g transform="matrix(1 0 0 1 0 0)" class="aD6z1nYkhcolor6pk557rV5x"><path transform="" stroke="none" d="M13.64-14.08Q16.84-13.80 18.80-11.92Q20.76-10.04 20.76-7.32L20.76-7.32Q20.76-5.20 19.66-3.50Q18.56-1.80 16.66-0.82Q14.76 0.16 12.40 0.16L12.40 0.16Q11.12 0.16 9.60 0.04L9.60 0.04Q9.04 0 8.28-0.04Q7.52-0.08 6.56-0.08L6.56-0.08L3.76-0.04Q3 0 1.72 0L1.72 0Q1.60 0 1.60-0.24Q1.60-0.48 1.72-0.48L1.72-0.48Q3.12-0.48 3.78-0.70Q4.44-0.92 4.72-1.48Q5-2.04 5-3.24L5-3.24L5-21.76Q5-22.96 4.74-23.52Q4.48-24.08 3.82-24.30Q3.16-24.52 1.76-24.52L1.76-24.52Q1.68-24.52 1.68-24.76Q1.68-25 1.76-25L1.76-25L3.76-24.96Q5.52-24.88 6.56-24.88L6.56-24.88Q7.64-24.88 8.92-25L8.92-25Q9.36-25.04 9.98-25.08Q10.60-25.12 11.32-25.12L11.32-25.12Q14.76-25.12 16.56-23.70Q18.36-22.28 18.36-19.88L18.36-19.88Q18.36-17.96 17.12-16.42Q15.88-14.88 13.64-14.08L13.64-14.08ZM10.56-24.44Q9.60-24.44 9.10-24.24Q8.60-24.04 8.38-23.46Q8.16-22.88 8.16-21.68L8.16-21.68L8.16-14.08L9.92-14.04Q12.56-14.04 13.88-15.56Q15.20-17.08 15.20-19.56L15.20-19.56Q15.20-21.84 14.06-23.14Q12.92-24.44 10.56-24.44L10.56-24.44ZM11.76-0.64Q14.60-0.64 15.98-2.12Q17.36-3.60 17.36-6.36L17.36-6.36Q17.36-9.40 15.68-11.24Q14-13.08 10.92-13.12L10.92-13.12Q9.84-13.16 8.16-13.04L8.16-13.04L8.16-3.24Q8.16-2.24 8.44-1.70Q8.72-1.16 9.48-0.90Q10.24-0.64 11.76-0.64L11.76-0.64Z"></path>
    <path transform="" stroke="none" d="M33.80 0.48Q31 0.48 28.80-0.84Q26.60-2.16 25.38-4.40Q24.16-6.64 24.16-9.28L24.16-9.28Q24.16-12.36 25.76-14.62Q27.36-16.88 29.86-18.04Q32.36-19.20 34.96-19.20L34.96-19.20Q37.76-19.20 39.92-17.82Q42.08-16.44 43.24-14.24Q44.40-12.04 44.40-9.64L44.40-9.64Q44.40-6.96 42.96-4.62Q41.52-2.28 39.10-0.90Q36.68 0.48 33.80 0.48L33.80 0.48ZM34.80-0.36Q37.64-0.36 39.34-2.56Q41.04-4.76 41.04-8.68L41.04-8.68Q41.04-11.32 40.16-13.52Q39.28-15.72 37.60-17.02Q35.92-18.32 33.60-18.32L33.60-18.32Q30.68-18.32 29.08-16.24Q27.48-14.16 27.48-10.36L27.48-10.36Q27.48-7.56 28.40-5.28Q29.32-3 30.98-1.68Q32.64-0.36 34.80-0.36L34.80-0.36Z"></path>
    <path transform="" stroke="none" d="M56.76 0.48Q53.96 0.48 51.76-0.84Q49.56-2.16 48.34-4.40Q47.12-6.64 47.12-9.28L47.12-9.28Q47.12-12.36 48.72-14.62Q50.32-16.88 52.82-18.04Q55.32-19.20 57.92-19.20L57.92-19.20Q60.72-19.20 62.88-17.82Q65.04-16.44 66.20-14.24Q67.36-12.04 67.36-9.64L67.36-9.64Q67.36-6.96 65.92-4.62Q64.48-2.28 62.06-0.90Q59.64 0.48 56.76 0.48L56.76 0.48ZM57.76-0.36Q60.60-0.36 62.30-2.56Q64-4.76 64-8.68L64-8.68Q64-11.32 63.12-13.52Q62.24-15.72 60.56-17.02Q58.88-18.32 56.56-18.32L56.56-18.32Q53.64-18.32 52.04-16.24Q50.44-14.16 50.44-10.36L50.44-10.36Q50.44-7.56 51.36-5.28Q52.28-3 53.94-1.68Q55.60-0.36 57.76-0.36L57.76-0.36Z"></path>
    <path transform="" stroke="none" d="M90.52-0.48Q90.64-0.48 90.64-0.24Q90.64 0 90.52 0L90.52 0L85.96 0Q84.68 0 84.46-0.12Q84.24-0.24 83.18-1.88Q82.12-3.52 80.36-5.80L80.36-5.80L77.32-9.68L75.88-8.28L75.88-3.24Q75.88-2.04 76.08-1.46Q76.28-0.88 76.86-0.68Q77.44-0.48 78.72-0.48L78.72-0.48Q78.84-0.48 78.84-0.24Q78.84 0 78.72 0L78.72 0Q77.56 0 76.92-0.04L76.92-0.04L74.40-0.08L71.92-0.04Q71.24 0 70.04 0L70.04 0Q69.96 0 69.96-0.24Q69.96-0.48 70.04-0.48L70.04-0.48Q71.32-0.48 71.92-0.68Q72.52-0.88 72.74-1.46Q72.96-2.04 72.96-3.24L72.96-3.24L72.96-15.48Q72.96-16.68 72.74-17.24Q72.52-17.80 71.94-18.02Q71.36-18.24 70.12-18.24L70.12-18.24Q70-18.24 70-18.48Q70-18.72 70.12-18.72L70.12-18.72L71.92-18.68Q73.44-18.60 74.40-18.60L74.40-18.60Q75.36-18.60 76.96-18.68L76.96-18.68L78.72-18.72Q78.84-18.72 78.84-18.48Q78.84-18.24 78.72-18.24L78.72-18.24Q77.48-18.24 76.90-18Q76.32-17.76 76.10-17.18Q75.88-16.60 75.88-15.40L75.88-15.40L75.88-9.48L81.72-15.32Q83.36-16.96 83.36-17.56L83.36-17.56Q83.36-17.92 82.96-18.08Q82.56-18.24 81.68-18.24L81.68-18.24Q81.60-18.24 81.60-18.48Q81.60-18.72 81.68-18.72L81.68-18.72L83.24-18.68Q84.60-18.60 85.92-18.60L85.92-18.60Q87.52-18.60 88.80-18.68L88.80-18.68Q89.16-18.72 89.68-18.72L89.68-18.72Q89.80-18.72 89.80-18.48Q89.80-18.24 89.68-18.24L89.68-18.24Q88.28-18.24 86.24-17.36Q84.20-16.48 82.60-14.92L82.60-14.92L79.36-11.72L82.36-7.92Q85.16-4.24 86.38-2.82Q87.60-1.40 88.44-0.94Q89.28-0.48 90.52-0.48L90.52-0.48Z"></path>
    <path transform="" stroke="none" d="M95.56-15.56Q95.56-14.40 96.18-13.52Q96.80-12.64 97.68-12.06Q98.56-11.48 100.16-10.64L100.16-10.64Q101.80-9.80 102.82-9.12Q103.84-8.44 104.54-7.42Q105.24-6.40 105.24-5L105.24-5Q105.24-3.48 104.38-2.22Q103.52-0.96 101.96-0.24Q100.40 0.48 98.36 0.48L98.36 0.48Q96.84 0.48 95.46 0.10Q94.08-0.28 93.16-0.92L93.16-0.92Q92.84-1.12 92.84-1.72L92.84-1.72L92.48-5.88Q92.48-6.04 92.68-6.08Q92.88-6.12 92.96-5.96L92.96-5.96Q93.76-3.64 95.42-1.94Q97.08-0.24 99.12-0.24L99.12-0.24Q100.44-0.24 101.40-1.02Q102.36-1.80 102.36-3.44L102.36-3.44Q102.36-4.72 101.72-5.70Q101.08-6.68 100.12-7.34Q99.16-8 97.64-8.84L97.64-8.84Q96.08-9.68 95.12-10.34Q94.16-11 93.50-11.98Q92.84-12.96 92.84-14.28L92.84-14.28Q92.84-16.56 94.70-17.88Q96.56-19.20 99.20-19.20L99.20-19.20Q101.44-19.20 103.48-18.28L103.48-18.28Q103.84-18.12 103.94-17.98Q104.04-17.84 104.08-17.56L104.08-17.56L104.24-14Q104.24-13.84 104.04-13.80Q103.84-13.76 103.76-13.88L103.76-13.88Q103.56-14.76 102.86-15.84Q102.16-16.92 101.02-17.70Q99.88-18.48 98.48-18.48L98.48-18.48Q97.04-18.48 96.30-17.68Q95.56-16.88 95.56-15.56L95.56-15.56Z"></path>
    <path transform="" stroke="none" d="M112.76-18.12Q110.76-18.12 109.68-17.02Q108.60-15.92 108.04-13.40L108.04-13.40Q108.04-13.32 107.82-13.32Q107.60-13.32 107.60-13.40L107.60-13.40Q107.76-14.64 107.92-16.60Q108.08-18.56 108.08-19.60L108.08-19.60Q108.08-19.80 108.30-19.80Q108.52-19.80 108.52-19.60L108.52-19.60Q108.52-19.08 109.12-18.94Q109.72-18.80 110.64-18.80L110.64-18.80Q114.08-18.72 116.68-18.72L116.68-18.72L120.16-18.76Q120.84-18.80 122-18.80L122-18.80Q123.52-18.80 124.22-18.98Q124.92-19.16 125.12-19.76L125.12-19.76Q125.20-19.88 125.40-19.88Q125.60-19.88 125.60-19.76L125.60-19.76Q125.32-14.60 125.32-13.40L125.32-13.40Q125.32-13.32 125.10-13.32Q124.88-13.32 124.88-13.40L124.88-13.40Q124.72-15.84 123.68-16.98Q122.64-18.12 120.60-18.12L120.60-18.12Q119.12-18.12 118.64-17.58Q118.16-17.04 118.16-15.48L118.16-15.48L118.16-3.24Q118.16-2 118.38-1.44Q118.60-0.88 119.28-0.68Q119.96-0.48 121.44-0.48L121.44-0.48Q121.52-0.48 121.52-0.24Q121.52 0 121.44 0L121.44 0Q120.12 0 119.40-0.04L119.40-0.04L116.60-0.08L113.84-0.04Q113.08 0 111.76 0L111.76 0Q111.68 0 111.68-0.24Q111.68-0.48 111.76-0.48L111.76-0.48Q113.24-0.48 113.92-0.68Q114.60-0.88 114.86-1.46Q115.12-2.04 115.12-3.24L115.12-3.24L115.12-15.56Q115.12-16.68 114.96-17.20Q114.80-17.72 114.32-17.92Q113.84-18.12 112.76-18.12L112.76-18.12Z"></path>
    <path transform="" stroke="none" d="M137.52 0.48Q134.72 0.48 132.52-0.84Q130.32-2.16 129.10-4.40Q127.88-6.64 127.88-9.28L127.88-9.28Q127.88-12.36 129.48-14.62Q131.08-16.88 133.58-18.04Q136.08-19.20 138.68-19.20L138.68-19.20Q141.48-19.20 143.64-17.82Q145.80-16.44 146.96-14.24Q148.12-12.04 148.12-9.64L148.12-9.64Q148.12-6.96 146.68-4.62Q145.24-2.28 142.82-0.90Q140.40 0.48 137.52 0.48L137.52 0.48ZM138.52-0.36Q141.36-0.36 143.06-2.56Q144.76-4.76 144.76-8.68L144.76-8.68Q144.76-11.32 143.88-13.52Q143-15.72 141.32-17.02Q139.64-18.32 137.32-18.32L137.32-18.32Q134.40-18.32 132.80-16.24Q131.20-14.16 131.20-10.36L131.20-10.36Q131.20-7.56 132.12-5.28Q133.04-3 134.70-1.68Q136.36-0.36 138.52-0.36L138.52-0.36Z"></path>
    <path transform="" stroke="none" d="M171.48-0.48Q171.60-0.48 171.60-0.24Q171.60 0 171.48 0L171.48 0L166.20 0Q165.56 0 163.80-2.40Q162.04-4.80 159.64-9L159.64-9Q158.80-8.88 157.96-8.88L157.96-8.88Q157.12-8.88 156.68-8.92L156.68-8.92L156.68-3.24Q156.68-2 156.88-1.44Q157.08-0.88 157.64-0.68Q158.20-0.48 159.48-0.48L159.48-0.48Q159.60-0.48 159.60-0.24Q159.60 0 159.48 0L159.48 0Q158.36 0 157.72-0.04L157.72-0.04L155.16-0.08L152.68-0.04Q152 0 150.80 0L150.80 0Q150.72 0 150.72-0.24Q150.72-0.48 150.80-0.48L150.80-0.48Q152.08-0.48 152.66-0.68Q153.24-0.88 153.46-1.46Q153.68-2.04 153.68-3.24L153.68-3.24L153.68-15.48Q153.68-16.68 153.46-17.24Q153.24-17.80 152.66-18.02Q152.08-18.24 150.88-18.24L150.88-18.24Q150.76-18.24 150.76-18.48Q150.76-18.72 150.88-18.72L150.88-18.72L152.72-18.68Q154.24-18.60 155.16-18.60L155.16-18.60Q155.92-18.60 156.54-18.64Q157.16-18.68 157.60-18.72L157.60-18.72Q158.84-18.84 159.96-18.84L159.96-18.84Q162.72-18.84 164.18-17.84Q165.64-16.84 165.64-14.96L165.64-14.96Q165.64-13.36 164.70-12.02Q163.76-10.68 162.12-9.84L162.12-9.84Q164.32-6.20 165.86-4.20Q167.40-2.20 168.72-1.34Q170.04-0.48 171.48-0.48L171.48-0.48ZM156.68-9.68Q157.56-9.60 158.24-9.60L158.24-9.60Q160.64-9.60 161.58-10.68Q162.52-11.76 162.52-13.88L162.52-13.88Q162.52-18.20 158.96-18.20L158.96-18.20Q157.56-18.20 157.12-17.60Q156.68-17 156.68-15.40L156.68-15.40L156.68-9.68Z"></path>
    <path transform="" stroke="none" d="M187.52-5.32Q187.56-5.44 187.78-5.44Q188-5.44 188-5.32L188-5.32Q187.72-2.44 187.72-0.60L187.72-0.60Q187.72-0.28 187.60-0.14Q187.48 0 187.12 0L187.12 0L172.32 0Q172.24 0 172.24-0.24Q172.24-0.48 172.32-0.48L172.32-0.48Q173.60-0.48 174.18-0.68Q174.76-0.88 174.98-1.46Q175.20-2.04 175.20-3.24L175.20-3.24L175.20-15.48Q175.20-16.68 174.98-17.24Q174.76-17.80 174.16-18.02Q173.56-18.24 172.32-18.24L172.32-18.24Q172.24-18.24 172.24-18.48Q172.24-18.72 172.32-18.72L172.32-18.72L186.40-18.72Q186.80-18.72 186.80-18.40L186.80-18.40L186.84-15.92Q186.88-15.16 186.88-14L186.88-14Q186.88-13.88 186.64-13.88Q186.40-13.88 186.40-14L186.40-14Q186.04-15.84 184.74-17.02Q183.44-18.20 181.76-18.20L181.76-18.20L180.88-18.20Q179.68-18.20 179.10-17.98Q178.52-17.76 178.32-17.20Q178.12-16.64 178.12-15.44L178.12-15.44L178.12-10Q181.72-10.04 183.14-10.22Q184.56-10.40 184.76-10.40L184.76-10.40Q185-10.40 185-9.52L185-9.52Q185-8.60 184.76-8.60L184.76-8.60Q184.60-8.60 183.16-8.80Q181.72-9 178.12-9.08L178.12-9.08L178.12-3.40Q178.12-2.24 178.32-1.66Q178.52-1.08 179.10-0.86Q179.68-0.64 180.88-0.64L180.88-0.64L182.36-0.64Q184.08-0.64 185.52-1.96Q186.96-3.28 187.52-5.32L187.52-5.32Z"></path>
    </g>
        </svg>
      </g><g opacity="1" transform="rotate(0 96.6131 83.2099)">
        <svg width="32.6313" height="2.1754" x="96.6131" y="83.2099" version="1.1" preserveAspectRatio="none" viewBox="0 0 32.6313 2.1754">
          <rect x="0" y="0" width="32.6313" height="2.1754" class="text6pk557rV5x shapeStroke-str6pk557rV5x" style="stroke-width:0;" rx="0%" ry="0%"></rect>
        </svg>
      </g></svg>